<svg width="18" height="18" viewBox="0 0 18 18" fill="none" xmlns="http://www.w3.org/2000/svg">
<g clip-path="url(#clip0_2003_1714)">
<circle cx="9" cy="8.99999" r="9" fill="#EEEEEE"/>
<path d="M10.125 0.0696144C9.76219 0.024372 9.39267 0.000725693 9.01777 1.51317e-06L8.98223 1.51472e-06C8.60733 0.000725728 8.23781 0.0243721 7.875 0.0696145L7.875 7.875L0.0696279 7.875C0.0236726 8.24354 -4.10056e-07 8.619 -3.93402e-07 8.99998C-3.76749e-07 9.38098 0.0236741 9.75645 0.0696323 10.125L7.875 10.125L7.875 17.9304C8.24354 17.9763 8.61901 18 9 18C9.38099 18 9.75646 17.9763 10.125 17.9304L10.125 10.125L17.9304 10.125C17.9763 9.75645 18 9.38098 18 8.99998C18 8.619 17.9763 8.24354 17.9304 7.875L10.125 7.875L10.125 0.0696144Z" fill="#D80027"/>
<path d="M0 8.63384C0.192101 3.83305 4.14477 0 8.99269 0C8.99512 0 8.99756 9.6925e-07 9 2.90739e-06V9H0V8.63384Z" fill="#D80027"/>
<path fill-rule="evenodd" clip-rule="evenodd" d="M3.64324 1.76706C3.75944 2.03941 4.03915 2.2217 4.35938 2.2217H6.39844C6.50391 2.2217 6.60938 2.15139 6.60938 2.04592C6.60938 1.94045 6.50391 1.87014 6.39844 1.87014H4.5C4.292 1.87014 4.08399 1.71631 3.98976 1.52241C4.09956 1.4487 4.21107 1.37734 4.32422 1.30841C4.32456 1.41345 4.39479 1.48342 4.5 1.48342H6.39844C6.71484 1.48342 6.96094 1.72952 6.96094 2.04592C6.96094 2.36233 6.71484 2.60842 6.39844 2.60842V4.54202C6.39844 4.61233 6.32812 4.68264 6.25781 4.68264H4.78125C4.71094 4.68264 4.64062 4.61233 4.64062 4.54202C4.64062 4.19045 4.92188 3.9092 5.27344 3.9092H5.58984V3.5928H3.58594V4.57717C3.58594 4.68264 3.51562 4.75295 3.41016 4.75295H1.96875C1.86328 4.75295 1.79297 4.68264 1.79297 4.57717C1.79297 4.22561 2.07422 3.94436 2.46094 3.94436H2.74219V3.62795C2.6422 3.62807 2.54324 3.60787 2.4513 3.56859C2.35935 3.52931 2.27635 3.47176 2.20731 3.39944C2.16027 3.35016 2.12039 3.29473 2.08869 3.23477C2.54665 2.68636 3.06867 2.19329 3.64324 1.76706ZM4.69088 1.0967C4.92404 0.969305 5.16347 0.851924 5.40857 0.74514H6.39844V1.0967H4.69088ZM2.24074 5.65775C2.39238 5.50611 2.59805 5.42092 2.8125 5.42092C3.0208 5.42999 3.21755 5.51916 3.36167 5.66983C3.50579 5.8205 3.58613 6.02102 3.58594 6.22952C3.58594 6.65139 3.9375 6.9678 4.35938 6.9678H6.39844C6.50391 6.9678 6.60938 6.89748 6.60938 6.79202C6.60938 6.68655 6.50391 6.61623 6.39844 6.61623H4.5C4.21875 6.61623 3.9375 6.33498 3.9375 6.05373C3.9375 5.73733 4.21875 5.49123 4.5 5.49123H6.39844V5.8428H4.5C4.39453 5.8428 4.32422 5.94827 4.32422 6.05373C4.32422 6.1592 4.39453 6.22952 4.5 6.22952H6.39844C6.71484 6.22952 6.96094 6.47561 6.96094 6.79202C6.96094 7.10842 6.71484 7.35452 6.39844 7.35452V9.28811C6.39844 9.35842 6.32812 9.42873 6.25781 9.42873H4.78125C4.71094 9.42873 4.64062 9.35842 4.64062 9.28811C4.64062 8.93655 4.92188 8.6553 5.27344 8.6553H5.58984V8.33889H3.58594V9.32327C3.58594 9.42873 3.51562 9.49905 3.41016 9.49905H1.96875C1.86328 9.49905 1.79297 9.42873 1.79297 9.32327C1.79297 8.9717 2.07422 8.69045 2.46094 8.69045H2.74219V8.37405C2.6422 8.37416 2.54324 8.35396 2.4513 8.31468C2.35935 8.2754 2.27635 8.21785 2.20731 8.14553C2.13827 8.07321 2.08465 7.98762 2.04968 7.89394C2.01472 7.80027 1.99915 7.70048 2.00391 7.60061H1.05469C0.984375 7.60061 0.914062 7.5303 0.914062 7.45998V5.98342C0.914062 5.91311 0.984375 5.8428 1.05469 5.8428C1.40625 5.8428 1.6875 6.12405 1.6875 6.47561V6.79202H2.00391V6.22952C2.00391 6.01506 2.0891 5.80939 2.24074 5.65775Z" fill="#FFDA44"/>
</g>
<defs>
<clipPath id="clip0_2003_1714">
<rect width="18" height="18" fill="white"/>
</clipPath>
</defs>
</svg>
